<svg id="Layer_1" data-name="Layer 1" xmlns="http://www.w3.org/2000/svg" viewBox="0 0 704.73 105.35"><defs><style>.cls-1{fill:#a5cd39;}.cls-1,.cls-2{fill-rule:evenodd;}.cls-2{fill:#006d38;}.cls-3{fill:#ffffff;}.cls-4{fill:#a3cd3a;}</style></defs><title>logo-vivus.mk</title><path class="cls-1" d="M181.45,106.72V64.57A31.61,31.61,0,0,0,149.84,33h-7.5V51.83A47.43,47.43,0,0,1,95,99.21H76.1v7.51a31.6,31.6,0,0,0,31.59,31.59h42.15a31.6,31.6,0,0,0,31.61-31.59" transform="translate(-25.27 -32.96)"/><path class="cls-2" d="M126.55,51.82V33H107.69A31.61,31.61,0,0,0,76.1,64.57V83.41H95a31.59,31.59,0,0,0,31.6-31.59" transform="translate(-25.27 -32.96)"/><path class="cls-2" d="M38.69,47.54H25.27V61A22.48,22.48,0,0,0,47.74,83.42H61.15V70A22.47,22.47,0,0,0,38.69,47.54" transform="translate(-25.27 -32.96)"/><path class="cls-3" d="M294.52,64.42V135.1a3.27,3.27,0,0,0,3.19,2.79h11.94a2.92,2.92,0,0,0,2.68-3V64.42s.09-3.31-3.2-3.31H297.29s-2.77-.2-2.77,3.31" transform="translate(-25.27 -32.96)"/><path class="cls-3" d="M338.81,61.16H328.26s-3.83-.27-3,3.25,17.7,63.43,17.7,63.43,3.43,9.92,16.19,9.92,15.5-9.66,15.5-9.66l17.83-62.6s1.37-4.61-1.91-4.61H377.79a4.25,4.25,0,0,0-3.58,3.4c-.67,3.12-12.88,57-12.88,57a2.32,2.32,0,0,1-2.2,2c-1.92,0-2.61-2.31-2.61-2.31l-12.9-56.62s-.47-3.39-4.81-3.25" transform="translate(-25.27 -32.96)"/><path class="cls-3" d="M226.15,61.16H215.57s-3.82-.27-3,3.26S230.27,128,230.27,128s3.42,9.94,16.18,9.94S262,128.22,262,128.22l17.82-62.71s1.38-4.62-1.92-4.62H265.11a4.23,4.23,0,0,0-3.57,3.4c-.68,3.13-12.89,57.11-12.89,57.11a2.32,2.32,0,0,1-2.2,2c-1.93,0-2.6-2.31-2.6-2.31L230.94,64.42s-.46-3.4-4.79-3.26" transform="translate(-25.27 -32.96)"/><path class="cls-3" d="M404.27,63.81V111s1,26.89,31.27,26.89,30.72-25.53,30.72-25.53V64.2a2.74,2.74,0,0,0-3-3.13H451.45s-2.6-.56-2.6,3v48.71s-1.52,10.1-13.17,10.1-13.45-10.38-13.45-10.38V65.17s.28-4.24-3.15-4.24H406.74a2.57,2.57,0,0,0-2.47,2.88" transform="translate(-25.27 -32.96)"/><path class="cls-3" d="M528.68,76.15s-14.55-1.37-20.57-1.23-9.75.81-9.75,5.15,5.36,6.33,9.61,8.79c4.81,2.8,15.89,9,19.18,12s7.56,7.6,7.56,15.88-4.39,16.15-12.48,19-23.19,2.18-29.35,1.23-7.82-1.36-8.93-1.76a3.54,3.54,0,0,1-2.61-3.55V125s-.12-3.81,4.12-3,15.5,2.3,21.27,2,9.73-.81,10.15-5.82-5.63-6.92-11.53-10.73S494.1,101,489.59,97.31s-8.79-10.58-8.79-18S486,60.93,505.9,60.93c17.29,0,23.89,1.9,24.83,2.19a2.84,2.84,0,0,1,2.21,3.11c0,2.17,0,7.49,0,7.49s.36,3-4.3,2.43" transform="translate(-25.27 -32.96)"/><path class="cls-3" d="M294.52,36.43v11.4s.33,2.89,2.77,2.89h12a2.76,2.76,0,0,0,3-3V36.43s.51-3.18-3.71-3.18H298.13c-4,0-3.61,3.18-3.61,3.18" transform="translate(-25.27 -32.96)"/><path class="cls-4" d="M565,137.26a2,2,0,0,1-1.44.61h-12a2.15,2.15,0,0,1-1.49-.61,1.91,1.91,0,0,1-.66-1.44v-12.9a1.73,1.73,0,0,1,.66-1.38,2.24,2.24,0,0,1,1.49-.57h12a2.05,2.05,0,0,1,1.44.57,1.78,1.78,0,0,1,.61,1.38v12.9A2,2,0,0,1,565,137.26Z" transform="translate(-25.27 -32.96)"/><path class="cls-4" d="M655.38,137.25a2.51,2.51,0,0,1-1.18.31H640.66a1.42,1.42,0,0,1-1.18-.62,2.32,2.32,0,0,1-.46-1.44V92.73c0-.54-.17-.82-.51-.82s-.55.24-.82.72l-9.24,16.92a3.33,3.33,0,0,1-3.07,1.75h-8.21a3.34,3.34,0,0,1-3.08-1.75l-9.23-16.92c-.27-.48-.54-.72-.82-.72s-.51.28-.51.82V135.5a2.32,2.32,0,0,1-.46,1.44,1.42,1.42,0,0,1-1.18.62H588.35a2.48,2.48,0,0,1-1.18-.31,1.16,1.16,0,0,1-.56-1.13V64.83a3.27,3.27,0,0,1,1-2.56,3.81,3.81,0,0,1,2.67-.93h9.64a4.77,4.77,0,0,1,4.51,2.77l15.7,29.24c.41.89.78,1.33,1.12,1.33s.65-.44,1.13-1.33l15.7-29.24a4.76,4.76,0,0,1,4.51-2.77h9.64a3.74,3.74,0,0,1,2.67,1,3.44,3.44,0,0,1,1,2.61v71.19A1.18,1.18,0,0,1,655.38,137.25Z" transform="translate(-25.27 -32.96)"/><path class="cls-4" d="M730,62.47a2.85,2.85,0,0,1-.51,1.44L705.08,98.58l24.51,36.82a1.79,1.79,0,0,1,.41,1.13c0,.68-.48,1-1.44,1H710.92a2,2,0,0,1-1.38-.41,5.31,5.31,0,0,1-.87-1l-20.83-33.85V135.5a2.1,2.1,0,0,1-2.05,2.06H672.35a2.12,2.12,0,0,1-2.05-2.06V63.29a1.82,1.82,0,0,1,.62-1.38,2,2,0,0,1,1.43-.57h13.44a2.05,2.05,0,0,1,1.44.57,1.81,1.81,0,0,1,.61,1.38V95.91l22.57-33.33a2.44,2.44,0,0,1,2.26-1.24h15.69C729.45,61.34,730,61.72,730,62.47Z" transform="translate(-25.27 -32.96)"/></svg>